<svg width="64" height="64" viewBox="0 0 64 64" xmlns="http://www.w3.org/2000/svg">
  <!-- 龙宝宝身体 -->
  <ellipse cx="32" cy="40" rx="18" ry="12" fill="#ff6b6b" stroke="#e55555" stroke-width="1"/>
  
  <!-- 龙宝宝头部 -->
  <circle cx="32" cy="24" r="12" fill="#ff8e8e" stroke="#e55555" stroke-width="1"/>
  
  <!-- 龙宝宝眼睛 -->
  <circle cx="28" cy="22" r="2" fill="#333"/>
  <circle cx="36" cy="22" r="2" fill="#333"/>
  <circle cx="28.5" cy="21.5" r="0.8" fill="#fff"/>
  <circle cx="36.5" cy="21.5" r="0.8" fill="#fff"/>
  
  <!-- 龙宝宝鼻子 -->
  <ellipse cx="32" cy="25" rx="1" ry="0.8" fill="#e55555"/>
  
  <!-- 龙宝宝嘴巴 -->
  <path d="M 30 27 Q 32 29 34 27" stroke="#e55555" stroke-width="1.5" fill="none"/>
  
  <!-- 龙宝宝角 -->
  <path d="M 26 18 L 24 12 L 26 16" stroke="#ff9f43" stroke-width="2" fill="none" stroke-linecap="round"/>
  <path d="M 38 18 L 40 12 L 38 16" stroke="#ff9f43" stroke-width="2" fill="none" stroke-linecap="round"/>
  
  <!-- 龙宝宝翅膀 -->
  <ellipse cx="20" cy="35" rx="6" ry="8" fill="#ff9f43" opacity="0.8" transform="rotate(-20 20 35)"/>
  <ellipse cx="44" cy="35" rx="6" ry="8" fill="#ff9f43" opacity="0.8" transform="rotate(20 44 35)"/>
  
  <!-- 龙宝宝尾巴 -->
  <path d="M 14 40 Q 8 45 6 50 Q 4 55 8 58" stroke="#ff6b6b" stroke-width="3" fill="none" stroke-linecap="round"/>
  
  <!-- 龙宝宝小爪子 -->
  <circle cx="22" cy="48" r="2" fill="#ff8e8e"/>
  <circle cx="42" cy="48" r="2" fill="#ff8e8e"/>
  
  <!-- 可爱的小星星装饰 -->
  <path d="M 12 15 L 13 18 L 16 18 L 14 20 L 15 23 L 12 21 L 9 23 L 10 20 L 8 18 L 11 18 Z" fill="#ffd93d" opacity="0.8"/>
  <path d="M 50 20 L 51 22 L 53 22 L 52 23 L 52 25 L 50 24 L 48 25 L 48 23 L 47 22 L 49 22 Z" fill="#ffd93d" opacity="0.8"/>
</svg>
