<svg width="48" height="48" viewBox="0 0 48 48" xmlns="http://www.w3.org/2000/svg">
  <!-- 龙宝宝身体 -->
  <ellipse cx="24" cy="30" rx="13" ry="9" fill="#ff6b6b" stroke="#e55555" stroke-width="0.8"/>
  
  <!-- 龙宝宝头部 -->
  <circle cx="24" cy="18" r="9" fill="#ff8e8e" stroke="#e55555" stroke-width="0.8"/>
  
  <!-- 龙宝宝眼睛 -->
  <circle cx="21" cy="16.5" r="1.5" fill="#333"/>
  <circle cx="27" cy="16.5" r="1.5" fill="#333"/>
  <circle cx="21.3" cy="16.2" r="0.6" fill="#fff"/>
  <circle cx="27.3" cy="16.2" r="0.6" fill="#fff"/>
  
  <!-- 龙宝宝鼻子 -->
  <ellipse cx="24" cy="18.8" rx="0.8" ry="0.6" fill="#e55555"/>
  
  <!-- 龙宝宝嘴巴 -->
  <path d="M 22.5 20.2 Q 24 21.5 25.5 20.2" stroke="#e55555" stroke-width="1.2" fill="none"/>
  
  <!-- 龙宝宝角 -->
  <path d="M 19.5 13.5 L 18 9 L 19.5 12" stroke="#ff9f43" stroke-width="1.5" fill="none" stroke-linecap="round"/>
  <path d="M 28.5 13.5 L 30 9 L 28.5 12" stroke="#ff9f43" stroke-width="1.5" fill="none" stroke-linecap="round"/>
  
  <!-- 龙宝宝翅膀 -->
  <ellipse cx="15" cy="26" rx="4.5" ry="6" fill="#ff9f43" opacity="0.8" transform="rotate(-20 15 26)"/>
  <ellipse cx="33" cy="26" rx="4.5" ry="6" fill="#ff9f43" opacity="0.8" transform="rotate(20 33 26)"/>
  
  <!-- 龙宝宝尾巴 -->
  <path d="M 10.5 30 Q 6 33 4.5 37.5 Q 3 42 6 43.5" stroke="#ff6b6b" stroke-width="2.2" fill="none" stroke-linecap="round"/>
  
  <!-- 龙宝宝小爪子 -->
  <circle cx="16.5" cy="36" r="1.5" fill="#ff8e8e"/>
  <circle cx="31.5" cy="36" r="1.5" fill="#ff8e8e"/>
  
  <!-- 可爱的小星星装饰 -->
  <path d="M 9 11.2 L 9.8 13.5 L 12 13.5 L 10.5 15 L 11 17.2 L 9 16 L 7 17.2 L 7.5 15 L 6 13.5 L 8.2 13.5 Z" fill="#ffd93d" opacity="0.8"/>
  <path d="M 37.5 15 L 38.2 16.5 L 39.8 16.5 L 38.8 17.5 L 39 19 L 37.5 18 L 36 19 L 36.2 17.5 L 35.2 16.5 L 36.8 16.5 Z" fill="#ffd93d" opacity="0.8"/>
</svg>
